<?xml version="1.0" encoding="iso-8859-1"?>
<!-- Uploaded to: SVG Repo, www.svgrepo.com, Generator: SVG Repo Mixer Tools -->
<svg version="1.1" id="Layer_1" xmlns="http://www.w3.org/2000/svg" xmlns:xlink="http://www.w3.org/1999/xlink" 
	 viewBox="0 0 512 512" xml:space="preserve">
<rect x="176.175" y="392.379" style="fill:#36A9E1;" width="47.896" height="23.947"/>
<rect x="8.54" y="73.081" style="fill:#1D71B8;" width="494.917" height="247.464"/>
<rect x="128.283" y="304.574" style="fill:#A5C6E3;" width="255.444" height="31.93"/>
<g>
	<polygon style="fill:#FFFFFF;" points="208.104,260.098 178.305,160.768 160.208,160.768 160.208,145.038 190.008,145.038 
		208.104,205.357 226.2,145.038 351.791,145.038 351.791,160.768 237.903,160.768 	"/>
	<polygon style="fill:#FFFFFF;" points="317.439,192.933 306.316,181.809 286.477,201.648 266.638,181.809 255.515,192.933 
		275.354,212.771 255.515,232.61 266.638,243.734 286.477,223.894 306.316,243.734 317.439,232.61 297.6,212.771 	"/>
</g>
<g>
	<path style="fill:#1D1D1B;" d="M386.445,496.27l-24.112-151.903h29.254v-47.66H120.413v47.66h29.254L125.555,496.27h-17.233V512
		h47.896v-15.73h-14.736l11.441-72.078h206.154l11.441,72.078h-14.736V512h47.896v-15.73H386.445z M136.143,312.437h239.712v16.2
		H136.143V312.437z M155.419,408.462l10.174-64.095h180.812l10.174,64.095H155.419z"/>
	<rect x="176.175" y="384.514" style="fill:#1D1D1B;" width="47.896" height="15.73"/>
	<rect x="192.262" y="368.427" style="fill:#1D1D1B;" width="15.73" height="23.948"/>
	<rect x="263.98" y="384.514" style="fill:#1D1D1B;" width="39.912" height="15.73"/>
	<path style="fill:#1D1D1B;" d="M318.023,65.212L307.671,0l-15.535,2.466l3.624,22.834h-79.521l3.624-22.834L204.328,0
		l-10.351,65.212H0.675v263.19h111.639v-15.73H16.405V80.942h479.19v231.73h-95.909v15.73h111.639V65.212H318.023z M213.741,41.029
		h84.515l3.838,24.183h-92.192L213.741,41.029z"/>
</g>
</svg>