<?xml version="1.0" ?>
<!DOCTYPE svg  PUBLIC '-//W3C//DTD SVG 1.1//EN'  'http://www.w3.org/Graphics/SVG/1.1/DTD/svg11.dtd'>
<!-- Uploaded to: SVG Repo, www.svgrepo.com, Generator: SVG Repo Mixer Tools -->
<svg fill="#000000" width="800px" height="800px" viewBox="0 0 512 512" version="1.1" xml:space="preserve" xmlns="http://www.w3.org/2000/svg" xmlns:xlink="http://www.w3.org/1999/xlink">
<g id="_x35_90_x2C__Build_x2C__design_x2C__geometry_x2C__math_x2C__tool">
<g>
<path d="M282.806,76.207c-4.831-4.83-10.867-8.428-17.63-10.312h-0.047    l-0.025-0.023h-0.049h-0.022l-0.024-0.024h-0.025l-0.047-0.023h-0.024l0,0h-0.024l-0.048-0.025    c-2.803-0.748-5.724-1.207-8.742-1.328h-0.074h-0.072h-0.024l-0.072-0.023h-0.097h-0.072h-0.097h-0.074h-0.072h-0.025h-0.072    h-0.097h-0.072h-0.097h-0.096h-0.074l0,0h-0.097l-0.072-0.025h-0.097h-0.072h-0.097h-0.074h-0.096h-0.097h-0.072h-0.097    l-0.072,0.025h-0.099l0,0h-0.096h-0.072h-0.096h-0.168h-0.074h-0.023h-0.074h-0.097h-0.072h-0.097h-0.072l-0.097,0.023l0,0h-0.096    h-0.074h-0.097h-0.072h-0.097l-0.507,0.049h-0.072l0,0h-0.096l-0.411,0.023l0,0h-0.097c-9.806,0.773-18.644,5.072-25.212,11.664    c-7.27,7.27-11.76,17.291-11.76,28.4c0,11.084,4.49,21.131,11.76,28.399c7.269,7.245,17.292,11.761,28.399,11.761    c11.085,0,21.131-4.516,28.4-11.761c7.269-7.269,11.761-17.315,11.761-28.399C294.566,93.498,290.074,83.477,282.806,76.207     M266.504,92.484c-3.09-3.091-7.364-5.023-12.099-5.023c-4.732,0-9.032,1.933-12.122,5.023c-3.092,3.092-5,7.389-5,12.123    c0,4.709,1.908,9.008,5,12.099c3.09,3.091,7.389,5.022,12.122,5.022c4.734,0,9.009-1.932,12.099-5.022    c3.092-3.091,5.024-7.39,5.024-12.099C271.528,99.873,269.596,95.576,266.504,92.484z M254.405,81.545    c6.353,0,12.123,2.584,16.277,6.738c4.202,4.201,6.785,9.949,6.785,16.324c0,6.352-2.583,12.123-6.761,16.277    c-4.179,4.177-9.949,6.785-16.302,6.785c-6.375,0-12.122-2.608-16.3-6.762c-4.178-4.178-6.763-9.949-6.763-16.301    c0-6.375,2.584-12.123,6.738-16.301C242.284,84.129,248.03,81.545,254.405,81.545z M245.953,59.279    c1.764-0.339,3.55-0.557,5.385-0.676h0.097l0,0l0.846-0.049h0.121l0.072-0.024h0.096h0.049h0.047h0.096h0.097h0.097l0.098-0.024    h0.097h0.047h0.049h0.097h0.097h0.096h0.097h0.097h0.072h0.024h0.097h0.097h0.096h0.097h0.097h0.096h0.097h0.097h0.073h0.097    h0.097h0.096h0.025h0.072h0.097h0.096h0.097h0.097h0.096h0.049h0.023h0.096l0.097,0.024h0.097H256h0.097h0.072h0.024h0.097    l0.097,0.024h0.096h0.097l0.845,0.049h0.097c1.786,0.119,3.573,0.337,5.312,0.676V34.43c0-2.319-0.94-4.42-2.486-5.965    c-1.521-1.521-3.646-2.463-5.941-2.463c-2.318,0-4.443,0.941-5.964,2.463c-1.521,1.545-2.488,3.646-2.488,5.965V59.279z     M409.687,202.243v-9.225h-30.718v9.225H409.687z M378.969,386.986h12.388V225.281c0-1.617,1.328-2.97,2.971-2.97    c1.642,0,2.971,1.353,2.971,2.97v161.705h12.389V208.184h-30.718V386.986z M409.687,392.927h-30.718v17.388l15.358,32.336    l15.359-32.336V392.927z M383.846,158.291h20.987c2.632,0,4.804,2.125,4.854,4.733v0.121v0.12v23.813h-30.718v-23.813v-0.12    v-0.121C379.041,160.416,381.189,158.291,383.846,158.291z M345.787,245.904h-8.428v8.429h4.129h0.097h0.071h4.131V245.904z     M334.389,239.965h14.369c1.643,0,2.97,1.352,2.97,2.971v14.368c0,1.643-1.327,2.971-2.97,2.971h-4.273    c-0.195,6.448-1.088,12.751-2.609,18.788c-1.69,6.811-4.179,13.307-7.318,19.393l-2.39-8.863c1.618-3.84,2.946-7.825,3.96-11.93    c1.4-5.579,2.223-11.398,2.415-17.388h-4.153c-1.643,0-2.971-1.328-2.971-2.971v-14.368    C331.418,241.316,332.746,239.965,334.389,239.965z M172.225,245.904h-8.428v8.429h4.129H168h0.072h4.153V245.904z     M160.826,239.965h14.37c1.618,0,2.971,1.352,2.971,2.971v14.368c0,1.643-1.353,2.971-2.971,2.971h-4.178    c0.217,5.796,0.99,11.397,2.293,16.783c0.917,3.841,2.102,7.583,3.551,11.182l-2.439,9.056c-2.946-5.916-5.266-12.243-6.859-18.86    c-1.425-5.868-2.271-11.954-2.486-18.16h-4.252c-1.641,0-2.969-1.328-2.969-2.971v-14.368    C157.857,241.316,159.186,239.965,160.826,239.965z M127.235,485.999c-1.643,0-2.971-1.329-2.971-2.972    c0-1.642,1.329-2.97,2.971-2.97h196.696c1.618,0,2.971,1.328,2.971,2.97c0,1.643-1.353,2.972-2.971,2.972H127.235z     M230.788,474.673c-1.643,0-2.971-1.329-2.971-2.971c0-1.643,1.328-2.971,2.971-2.971H386.31c1.643,0,2.971,1.328,2.971,2.971    c0,1.642-1.328,2.971-2.971,2.971H230.788z M402.224,474.673c-1.642,0-2.97-1.329-2.97-2.971c0-1.643,1.328-2.971,2.97-2.971    h19.44c1.643,0,2.971,1.328,2.971,2.971c0,1.642-1.328,2.971-2.971,2.971H402.224z M90.334,475.011    c-1.643,0-2.969-1.329-2.969-2.972c0-1.641,1.327-2.97,2.969-2.97h73.68c1.643,0,2.971,1.329,2.971,2.97    c0,1.643-1.328,2.972-2.971,2.972H90.334z M252.788,385.488c0,1.111,0.749,2.295,1.691,2.656c1.979,0.991,4.25-0.507,4.25-2.656    v-5.941c0-1.109-0.725-2.293-1.667-2.655c-1.979-0.99-4.274,0.507-4.274,2.655V385.488z M252.788,409.228    c0,1.11,0.749,2.294,1.691,2.656c1.979,0.99,4.25-0.507,4.25-2.656v-5.94c0-1.111-0.725-2.295-1.667-2.657    c-1.979-0.989-4.274,0.507-4.274,2.657V409.228z M252.788,432.967c0,1.11,0.749,2.294,1.691,2.655    c1.979,0.991,4.25-0.507,4.25-2.655v-5.941c0-1.11-0.725-2.294-1.667-2.656c-1.979-0.99-4.274,0.507-4.274,2.656V432.967z     M252.788,262.568c0,1.135,0.749,2.294,1.691,2.681c1.979,0.989,4.25-0.531,4.25-2.681v-5.916c0-1.136-0.725-2.295-1.667-2.681    c-1.979-0.991-4.274,0.53-4.274,2.681V262.568z M252.788,286.307c0,1.136,0.749,2.295,1.691,2.681    c1.979,0.991,4.25-0.53,4.25-2.681v-5.916c0-1.135-0.725-2.294-1.667-2.681c-1.979-0.989-4.274,0.531-4.274,2.681V286.307z     M252.788,310.047c0,1.134,0.749,2.294,1.691,2.68c1.979,0.99,4.25-0.531,4.25-2.68v-5.941c0-1.111-0.725-2.271-1.667-2.656    c-1.979-0.99-4.274,0.53-4.274,2.656V310.047z M258.729,329.39v-1.546c0-1.111-0.725-2.295-1.667-2.656    c-1.979-0.99-4.274,0.508-4.274,2.656v1.546h-8.742c-1.643,0-2.971,1.329-2.971,2.97v7.656c-5.893-0.99-11.59-2.561-16.976-4.686    c-4.638-1.835-11.278-5.506-16.76-8.935l-1.595,5.964c5.434,3.334,11.641,6.69,16.18,8.477c6.085,2.391,12.51,4.154,19.15,5.169    v9.805c0,1.642,1.328,2.97,2.971,2.97h8.742v2.971c0,1.135,0.749,2.295,1.691,2.681c1.979,0.99,4.25-0.532,4.25-2.681v-2.971    h8.766c1.643,0,2.971-1.328,2.971-2.97V345.69c6.135-1.087,12.052-2.802,17.702-5.048c3.888-1.569,9.659-4.66,14.899-7.775    l-1.569-5.941c-5.338,3.236-11.544,6.617-15.527,8.212c-4.952,1.979-10.145,3.501-15.505,4.539v-7.317    c0-1.641-1.328-2.97-2.971-2.97H258.729z M255.541,335.33c0.146,0.023,0.29,0.023,0.436,0h8.548v17.533H256    c-0.146-0.025-0.292-0.025-0.435,0h-8.549v-9.346v-0.097v-8.091H255.541z M258.729,232.912c0-1.134-0.725-2.294-1.667-2.68    c-1.979-0.966-4.274,0.531-4.274,2.68v5.941c0,1.111,0.749,2.295,1.691,2.656c1.979,0.99,4.25-0.507,4.25-2.656V232.912z     M356.823,442.868c0.411,1.569-0.507,3.163-2.077,3.573c-1.546,0.387-3.139-0.531-3.55-2.077l-8.452-31.949    c-1.303,0.169-2.631,0.193-3.938,0.048c-4.781-0.579-9.271-3.694-10.938-10.021l-19.538-72.811l-1.593-6.014l-46.439-173.295    c9.685-1.232,18.427-5.482,25.284-11.761l68.802,256.78c1.69,6.327-0.627,11.254-4.491,14.151    c-0.507,0.386-1.063,0.748-1.619,1.063L356.823,442.868z M158.991,444.123c-0.386,1.546-1.979,2.487-3.55,2.077    c-1.544-0.411-2.462-2.004-2.051-3.55l8.282-31.347c-2.414-1.158-4.54-3.042-5.989-5.554l-0.072-0.121    c-1.692-3.019-2.271-6.688-1.304-10.287l68.825-256.877c6.834,6.303,15.577,10.577,25.26,11.834l-46.27,172.643l-1.618,6.062    l-19.682,73.438v0.049c-0.991,3.622-3.356,6.52-6.399,8.283c-2.223,1.279-4.685,1.884-7.077,1.835L158.991,444.123z     M111.95,411.159c1.618,0,2.969,1.328,2.969,2.971c0,1.618-1.351,2.97-2.969,2.97H88.138v23.788h42.405V176.162H88.138v23.787    h23.812c1.618,0,2.969,1.328,2.969,2.971c0,1.641-1.351,2.97-2.969,2.97H88.138v20.455h14.875c1.642,0,2.971,1.353,2.971,2.97    c0,1.643-1.329,2.971-2.971,2.971H88.138v20.479h23.812c1.618,0,2.969,1.328,2.969,2.945c0,1.643-1.351,2.971-2.969,2.971H88.138    v20.479h14.875c1.642,0,2.971,1.328,2.971,2.97c0,1.643-1.329,2.971-2.971,2.971H88.138v20.455h23.812    c1.618,0,2.969,1.328,2.969,2.971c0,1.641-1.351,2.969-2.969,2.969H88.138v20.455h14.875c1.642,0,2.971,1.328,2.971,2.971    s-1.329,2.971-2.971,2.971H88.138v20.454h23.812c1.618,0,2.969,1.353,2.969,2.97c0,1.643-1.351,2.971-2.969,2.971H88.138v20.479    h14.875c1.642,0,2.971,1.328,2.971,2.946c0,1.641-1.329,2.97-2.971,2.97H88.138v20.479H111.95z" style="fill-rule:evenodd;clip-rule:evenodd;"/>
</g>
</g>
<g id="Layer_1"/>
</svg>